# xmcd
#
# Track frame offsets: 
#        150
#        9065
#        21645
#        33801
#        47205
#        56988
#        72424
#        84191
#        94991
#        104198
#        120953
#        132965
#
# Disc length: 1925 seconds
#
# Revision: 0
# Processed by: cddbd v1.5.2PL0 Copyright (c) Steve Scherf et al.
# Submitted via: ExactAudioCopy v0.95a4
#
DISCID=9f07830c
DTITLE=Patsy Cline - Icon
DYEAR=2010
DGENRE=Oldies
TTITLE0=Walkin' After Midnight
TTITLE1=I Fall To Pieces
TTITLE2=Crazy
TTITLE3=She's Got You
TTITLE4=Heartaches
TTITLE5=Why Can't He Be You
TTITLE6=When I Get Through With You (You'll Love Me Too)
TTITLE7=Leavin' On My Mind
TTITLE8=Back In Baby's Arms
TTITLE9=Faded Love
TTITLE10=Always
TTITLE11=Sweet Dreams (Of You)
EXTD=
EXTT0=
EXTT1=
EXTT2=
EXTT3=
EXTT4=
EXTT5=
EXTT6=
EXTT7=
EXTT8=
EXTT9=
EXTT10=
EXTT11=
PLAYORDER=
